<svg width="194" height="109" viewBox="0 0 194 109" fill="none" xmlns="http://www.w3.org/2000/svg">
<g clip-path="url(#clip0_60_46)">
<path d="M169.34 98.0001C168.917 97.2691 168.589 96.4875 168.362 95.6741C168.855 95.4232 169.27 95.0407 169.559 94.569C169.849 94.0972 170.002 93.5546 170.002 93.0012C170.002 92.4477 169.849 91.905 169.56 91.4331C169.271 90.9611 168.857 90.5783 168.364 90.3271C168.816 88.6926 169.677 87.2 170.865 85.9901C171.329 86.2918 171.868 86.4592 172.421 86.4738C172.974 86.4885 173.521 86.3497 174 86.0729C174.48 85.7961 174.873 85.3921 175.137 84.9055C175.401 84.4189 175.525 83.8688 175.496 83.3161C177.138 82.8917 178.861 82.8924 180.503 83.3181C180.474 83.8708 180.598 84.4209 180.863 84.9073C181.127 85.3937 181.52 85.7975 182 86.0741C182.479 86.3507 183.026 86.4893 183.579 86.4744C184.133 86.4596 184.671 86.2919 185.135 85.9901C185.714 86.5801 186.228 87.2511 186.66 88.0001C187.093 88.7491 187.417 89.5301 187.638 90.3261C187.145 90.577 186.73 90.9594 186.441 91.4312C186.152 91.9029 185.998 92.4455 185.998 92.999C185.998 93.5524 186.151 94.0951 186.44 94.5671C186.729 95.039 187.143 95.4218 187.636 95.6731C187.184 97.3076 186.323 98.8001 185.135 100.01C184.671 99.7083 184.132 99.5409 183.579 99.5263C183.026 99.5117 182.479 99.6504 182 99.9272C181.52 100.204 181.127 100.608 180.863 101.095C180.599 101.581 180.475 102.131 180.504 102.684C178.862 103.108 177.139 103.108 175.497 102.682C175.526 102.129 175.402 101.579 175.137 101.093C174.873 100.606 174.48 100.203 174 99.926C173.521 99.6494 172.974 99.5109 172.421 99.5257C171.867 99.5406 171.329 99.7082 170.865 100.01C170.274 99.407 169.762 98.7317 169.34 98.0001ZM175 98.1961C176.066 98.8107 176.867 99.7971 177.25 100.966C177.749 101.013 178.25 101.014 178.749 100.967C179.132 99.7979 179.934 98.8115 181 98.1971C182.065 97.5808 183.321 97.3795 184.525 97.6321C184.815 97.2241 185.065 96.7891 185.273 96.3341C184.452 95.4175 183.999 94.2303 184 93.0001C184 91.7401 184.47 90.5631 185.273 89.6661C185.064 89.2112 184.813 88.7767 184.523 88.3681C183.319 88.6204 182.065 88.4195 181 87.8041C179.934 87.1894 179.133 86.203 178.75 85.0341C178.251 84.9871 177.75 84.9861 177.251 85.0331C176.868 86.2022 176.066 87.1886 175 87.8031C173.935 88.4194 172.68 88.6206 171.475 88.3681C171.186 88.7764 170.935 89.2109 170.727 89.6661C171.548 90.5826 172.001 91.7699 172 93.0001C172 94.2601 171.53 95.4371 170.727 96.3341C170.937 96.7889 171.188 97.2234 171.477 97.6321C172.681 97.3798 173.935 97.5806 175 98.1961ZM178 96.0001C177.204 96.0001 176.441 95.684 175.879 95.1214C175.316 94.5588 175 93.7957 175 93.0001C175 92.2044 175.316 91.4414 175.879 90.8787C176.441 90.3161 177.204 90.0001 178 90.0001C178.796 90.0001 179.559 90.3161 180.121 90.8787C180.684 91.4414 181 92.2044 181 93.0001C181 93.7957 180.684 94.5588 180.121 95.1214C179.559 95.684 178.796 96.0001 178 96.0001ZM178 94.0001C178.265 94.0001 178.52 93.8947 178.707 93.7072C178.895 93.5196 179 93.2653 179 93.0001C179 92.7349 178.895 92.4805 178.707 92.293C178.52 92.1054 178.265 92.0001 178 92.0001C177.735 92.0001 177.48 92.1054 177.293 92.293C177.105 92.4805 177 92.7349 177 93.0001C177 93.2653 177.105 93.5196 177.293 93.7072C177.48 93.8947 177.735 94.0001 178 94.0001Z" fill="#4AE8A1"/>
</g>
<rect x="0.5" y="76.5" width="193" height="32" stroke="#262626"/>
<path d="M10.816 101.162C9.688 101.162 8.881 100.919 8.395 100.433C7.915 99.947 7.651 99.146 7.603 98.03C7.597 97.766 7.594 97.505 7.594 97.247C7.594 96.983 7.597 96.722 7.603 96.464C7.615 96.2 7.633 95.936 7.657 95.672H9.646C9.622 96.152 9.607 96.626 9.601 97.094C9.601 97.556 9.616 97.994 9.646 98.408C9.676 98.744 9.781 98.999 9.961 99.173C10.147 99.341 10.429 99.425 10.807 99.425C11.179 99.425 11.449 99.341 11.617 99.173C11.785 98.999 11.887 98.744 11.923 98.408C11.941 98.15 11.953 97.91 11.959 97.688C11.971 97.46 11.971 97.229 11.959 96.995C11.953 96.761 11.941 96.509 11.923 96.239C11.899 95.909 11.824 95.624 11.698 95.384C11.578 95.138 11.362 94.976 11.05 94.898L9.79 94.574C9.226 94.43 8.785 94.223 8.467 93.953C8.149 93.677 7.921 93.329 7.783 92.909C7.645 92.483 7.567 91.979 7.549 91.397C7.543 91.085 7.54 90.776 7.54 90.47C7.546 90.164 7.552 89.858 7.558 89.552C7.588 88.808 7.711 88.208 7.927 87.752C8.143 87.296 8.485 86.963 8.953 86.753C9.421 86.543 10.039 86.438 10.807 86.438C11.899 86.438 12.688 86.681 13.174 87.167C13.666 87.647 13.933 88.442 13.975 89.552C13.987 89.84 13.99 90.194 13.984 90.614C13.978 91.028 13.966 91.436 13.948 91.838H11.923C11.941 91.394 11.95 90.95 11.95 90.506C11.956 90.062 11.95 89.621 11.932 89.183C11.926 88.847 11.824 88.595 11.626 88.427C11.434 88.259 11.161 88.175 10.807 88.175C10.429 88.175 10.153 88.259 9.979 88.427C9.805 88.595 9.7 88.847 9.664 89.183C9.634 89.549 9.619 89.918 9.619 90.29C9.619 90.662 9.634 91.031 9.664 91.397C9.688 91.751 9.763 92.042 9.889 92.27C10.021 92.498 10.252 92.651 10.582 92.729L11.698 92.999C12.292 93.137 12.754 93.35 13.084 93.638C13.42 93.926 13.657 94.286 13.795 94.718C13.939 95.144 14.023 95.651 14.047 96.239C14.053 96.467 14.056 96.677 14.056 96.869C14.056 97.061 14.053 97.25 14.047 97.436C14.041 97.622 14.035 97.82 14.029 98.03C13.987 99.146 13.723 99.947 13.237 100.433C12.751 100.919 11.944 101.162 10.816 101.162ZM16.7538 101V86.6H22.1358V88.463H18.8598V92.774H21.9558V94.637H18.8598V99.137H22.1358V101H16.7538ZM27.8455 101.162C26.6995 101.162 25.8805 100.922 25.3885 100.442C24.9025 99.956 24.6475 99.155 24.6235 98.039C24.6115 97.403 24.6025 96.725 24.5965 96.005C24.5905 95.285 24.5875 94.55 24.5875 93.8C24.5875 93.05 24.5905 92.315 24.5965 91.595C24.6025 90.869 24.6115 90.185 24.6235 89.543C24.6415 88.571 24.9025 87.812 25.4065 87.266C25.9105 86.72 26.7205 86.447 27.8365 86.447C28.9465 86.447 29.7505 86.687 30.2485 87.167C30.7465 87.647 31.0105 88.445 31.0405 89.561C31.0465 89.771 31.0495 90.014 31.0495 90.29C31.0495 90.566 31.0465 90.842 31.0405 91.118C31.0405 91.394 31.0375 91.637 31.0315 91.847H28.9165C28.9225 91.589 28.9285 91.304 28.9345 90.992C28.9405 90.674 28.9435 90.356 28.9435 90.038C28.9435 89.72 28.9405 89.435 28.9345 89.183C28.9285 88.841 28.8325 88.589 28.6465 88.427C28.4665 88.259 28.1965 88.175 27.8365 88.175C27.4765 88.175 27.2035 88.259 27.0175 88.427C26.8375 88.589 26.7415 88.841 26.7295 89.183C26.7115 89.915 26.6965 90.671 26.6845 91.451C26.6785 92.225 26.6755 93.008 26.6755 93.8C26.6755 94.592 26.6785 95.378 26.6845 96.158C26.6965 96.932 26.7115 97.682 26.7295 98.408C26.7415 98.756 26.8405 99.014 27.0265 99.182C27.2125 99.35 27.4855 99.434 27.8455 99.434C28.2295 99.434 28.5175 99.35 28.7095 99.182C28.9015 99.014 29.0005 98.756 29.0065 98.408C29.0125 98.15 29.0155 97.859 29.0155 97.535C29.0215 97.211 29.0215 96.887 29.0155 96.563C29.0095 96.233 29.0035 95.939 28.9975 95.681H31.1125C31.1245 96.059 31.1305 96.452 31.1305 96.86C31.1305 97.268 31.1245 97.661 31.1125 98.039C31.0825 99.155 30.8125 99.956 30.3025 100.442C29.7985 100.922 28.9795 101.162 27.8455 101.162ZM36.9728 101.162C35.8268 101.162 35.0048 100.922 34.5068 100.442C34.0148 99.956 33.7598 99.158 33.7418 98.048C33.7178 96.146 33.7058 94.238 33.7058 92.324C33.7058 90.404 33.7178 88.496 33.7418 86.6H35.8478C35.8298 87.86 35.8178 89.162 35.8118 90.506C35.8058 91.844 35.8058 93.182 35.8118 94.52C35.8238 95.858 35.8358 97.157 35.8478 98.417C35.8478 98.753 35.9438 99.005 36.1358 99.173C36.3278 99.341 36.6068 99.425 36.9728 99.425C37.3448 99.425 37.6208 99.341 37.8008 99.173C37.9868 99.005 38.0798 98.753 38.0798 98.417C38.0918 97.157 38.1008 95.858 38.1068 94.52C38.1128 93.182 38.1128 91.844 38.1068 90.506C38.1068 89.162 38.0978 87.86 38.0798 86.6H40.1858C40.2158 88.496 40.2308 90.404 40.2308 92.324C40.2308 94.238 40.2158 96.146 40.1858 98.048C40.1738 99.158 39.9188 99.956 39.4208 100.442C38.9288 100.922 38.1128 101.162 36.9728 101.162ZM43.0225 101V86.6H45.9925C47.1265 86.6 47.9455 86.837 48.4495 87.311C48.9595 87.779 49.2355 88.556 49.2775 89.642C49.2895 90.062 49.2985 90.443 49.3045 90.785C49.3105 91.121 49.3105 91.454 49.3045 91.784C49.2985 92.114 49.2895 92.468 49.2775 92.846C49.2535 93.542 49.1335 94.112 48.9175 94.556C48.7015 94.994 48.3655 95.321 47.9095 95.537L49.5025 101H47.2705L45.9205 95.888H45.1285V101H43.0225ZM45.1285 94.025H45.9835C46.3735 94.025 46.6615 93.935 46.8475 93.755C47.0395 93.569 47.1445 93.302 47.1625 92.954C47.1805 92.588 47.1925 92.213 47.1985 91.829C47.2045 91.439 47.2045 91.052 47.1985 90.668C47.1925 90.278 47.1805 89.9 47.1625 89.534C47.1445 89.18 47.0425 88.913 46.8565 88.733C46.6705 88.553 46.3825 88.463 45.9925 88.463H45.1285V94.025ZM52.0541 101V86.6H54.1601V101H52.0541ZM58.5437 101V88.463H56.4197V86.6H62.7827V88.463H60.6587V101H58.5437ZM66.8643 101V97.436V97.418L64.4523 86.6H66.6033L67.3503 90.317L67.7013 94.502H68.1333L68.4843 90.317L69.2313 86.6H71.3913L68.9703 97.427V97.445V101H66.8643ZM81.9933 101.162C80.8653 101.162 80.0583 100.919 79.5723 100.433C79.0923 99.947 78.8283 99.146 78.7803 98.03C78.7743 97.766 78.7713 97.505 78.7713 97.247C78.7713 96.983 78.7743 96.722 78.7803 96.464C78.7923 96.2 78.8103 95.936 78.8343 95.672H80.8233C80.7993 96.152 80.7843 96.626 80.7783 97.094C80.7783 97.556 80.7933 97.994 80.8233 98.408C80.8533 98.744 80.9583 98.999 81.1383 99.173C81.3243 99.341 81.6063 99.425 81.9843 99.425C82.3563 99.425 82.6263 99.341 82.7943 99.173C82.9623 98.999 83.0643 98.744 83.1003 98.408C83.1183 98.15 83.1303 97.91 83.1363 97.688C83.1483 97.46 83.1483 97.229 83.1363 96.995C83.1303 96.761 83.1183 96.509 83.1003 96.239C83.0763 95.909 83.0013 95.624 82.8753 95.384C82.7553 95.138 82.5393 94.976 82.2273 94.898L80.9673 94.574C80.4033 94.43 79.9623 94.223 79.6443 93.953C79.3263 93.677 79.0983 93.329 78.9603 92.909C78.8223 92.483 78.7443 91.979 78.7263 91.397C78.7203 91.085 78.7173 90.776 78.7173 90.47C78.7233 90.164 78.7293 89.858 78.7353 89.552C78.7653 88.808 78.8883 88.208 79.1043 87.752C79.3203 87.296 79.6623 86.963 80.1303 86.753C80.5983 86.543 81.2163 86.438 81.9843 86.438C83.0763 86.438 83.8653 86.681 84.3513 87.167C84.8433 87.647 85.1103 88.442 85.1523 89.552C85.1643 89.84 85.1673 90.194 85.1613 90.614C85.1553 91.028 85.1433 91.436 85.1253 91.838H83.1003C83.1183 91.394 83.1273 90.95 83.1273 90.506C83.1333 90.062 83.1273 89.621 83.1093 89.183C83.1033 88.847 83.0013 88.595 82.8033 88.427C82.6113 88.259 82.3383 88.175 81.9843 88.175C81.6063 88.175 81.3303 88.259 81.1563 88.427C80.9823 88.595 80.8773 88.847 80.8413 89.183C80.8113 89.549 80.7963 89.918 80.7963 90.29C80.7963 90.662 80.8113 91.031 80.8413 91.397C80.8653 91.751 80.9403 92.042 81.0663 92.27C81.1983 92.498 81.4293 92.651 81.7593 92.729L82.8753 92.999C83.4693 93.137 83.9313 93.35 84.2613 93.638C84.5973 93.926 84.8343 94.286 84.9723 94.718C85.1163 95.144 85.2003 95.651 85.2243 96.239C85.2303 96.467 85.2333 96.677 85.2333 96.869C85.2333 97.061 85.2303 97.25 85.2243 97.436C85.2183 97.622 85.2123 97.82 85.2063 98.03C85.1643 99.146 84.9003 99.947 84.4143 100.433C83.9283 100.919 83.1213 101.162 81.9933 101.162ZM87.9311 101V86.6H93.3131V88.463H90.0371V92.774H93.1331V94.637H90.0371V99.137H93.3131V101H87.9311ZM97.2859 101V88.463H95.1619V86.6H101.525V88.463H99.4009V101H97.2859ZM105.368 101V88.463H103.244V86.6H109.607V88.463H107.483V101H105.368ZM111.862 101V86.6H113.968V101H111.862ZM116.939 101V86.6H120.107L121.079 91.181L122.159 99.137H122.609L122.222 92.351L122.06 86.6H124.103V101H120.782L119.774 96.104L118.919 88.454H118.451L118.802 95.528L118.982 101H116.939ZM130.255 101.162C129.487 101.162 128.869 101.057 128.401 100.847C127.939 100.631 127.6 100.295 127.384 99.839C127.168 99.377 127.048 98.774 127.024 98.03C127.006 97.4 126.991 96.728 126.979 96.014C126.973 95.3 126.97 94.574 126.97 93.836C126.97 93.098 126.973 92.375 126.979 91.667C126.991 90.959 127.006 90.296 127.024 89.678C127.054 88.892 127.18 88.262 127.402 87.788C127.624 87.314 127.966 86.972 128.428 86.762C128.89 86.546 129.499 86.438 130.255 86.438C131.329 86.438 132.112 86.681 132.604 87.167C133.102 87.647 133.381 88.442 133.441 89.552C133.459 89.906 133.468 90.287 133.468 90.695C133.468 91.103 133.459 91.484 133.441 91.838H131.335C131.353 91.442 131.362 90.998 131.362 90.506C131.362 90.014 131.353 89.573 131.335 89.183C131.317 88.847 131.215 88.595 131.029 88.427C130.849 88.259 130.591 88.175 130.255 88.175C129.889 88.175 129.613 88.259 129.427 88.427C129.247 88.595 129.148 88.847 129.13 89.183C129.1 89.903 129.079 90.653 129.067 91.433C129.055 92.213 129.049 93.002 129.049 93.8C129.049 94.592 129.055 95.378 129.067 96.158C129.079 96.932 129.1 97.682 129.13 98.408C129.148 98.744 129.247 98.999 129.427 99.173C129.613 99.341 129.889 99.425 130.255 99.425C130.621 99.425 130.906 99.341 131.11 99.173C131.314 98.999 131.425 98.744 131.443 98.408C131.455 98.198 131.461 97.961 131.461 97.697C131.467 97.427 131.467 97.16 131.461 96.896C131.461 96.632 131.455 96.395 131.443 96.185H130.372V94.349H133.504C133.528 94.859 133.537 95.435 133.531 96.077C133.525 96.713 133.51 97.364 133.486 98.03C133.438 99.146 133.162 99.947 132.658 100.433C132.16 100.919 131.359 101.162 130.255 101.162ZM139.291 101.162C138.163 101.162 137.356 100.919 136.87 100.433C136.39 99.947 136.126 99.146 136.078 98.03C136.072 97.766 136.069 97.505 136.069 97.247C136.069 96.983 136.072 96.722 136.078 96.464C136.09 96.2 136.108 95.936 136.132 95.672H138.121C138.097 96.152 138.082 96.626 138.076 97.094C138.076 97.556 138.091 97.994 138.121 98.408C138.151 98.744 138.256 98.999 138.436 99.173C138.622 99.341 138.904 99.425 139.282 99.425C139.654 99.425 139.924 99.341 140.092 99.173C140.26 98.999 140.362 98.744 140.398 98.408C140.416 98.15 140.428 97.91 140.434 97.688C140.446 97.46 140.446 97.229 140.434 96.995C140.428 96.761 140.416 96.509 140.398 96.239C140.374 95.909 140.299 95.624 140.173 95.384C140.053 95.138 139.837 94.976 139.525 94.898L138.265 94.574C137.701 94.43 137.26 94.223 136.942 93.953C136.624 93.677 136.396 93.329 136.258 92.909C136.12 92.483 136.042 91.979 136.024 91.397C136.018 91.085 136.015 90.776 136.015 90.47C136.021 90.164 136.027 89.858 136.033 89.552C136.063 88.808 136.186 88.208 136.402 87.752C136.618 87.296 136.96 86.963 137.428 86.753C137.896 86.543 138.514 86.438 139.282 86.438C140.374 86.438 141.163 86.681 141.649 87.167C142.141 87.647 142.408 88.442 142.45 89.552C142.462 89.84 142.465 90.194 142.459 90.614C142.453 91.028 142.441 91.436 142.423 91.838H140.398C140.416 91.394 140.425 90.95 140.425 90.506C140.431 90.062 140.425 89.621 140.407 89.183C140.401 88.847 140.299 88.595 140.101 88.427C139.909 88.259 139.636 88.175 139.282 88.175C138.904 88.175 138.628 88.259 138.454 88.427C138.28 88.595 138.175 88.847 138.139 89.183C138.109 89.549 138.094 89.918 138.094 90.29C138.094 90.662 138.109 91.031 138.139 91.397C138.163 91.751 138.238 92.042 138.364 92.27C138.496 92.498 138.727 92.651 139.057 92.729L140.173 92.999C140.767 93.137 141.229 93.35 141.559 93.638C141.895 93.926 142.132 94.286 142.27 94.718C142.414 95.144 142.498 95.651 142.522 96.239C142.528 96.467 142.531 96.677 142.531 96.869C142.531 97.061 142.528 97.25 142.522 97.436C142.516 97.622 142.51 97.82 142.504 98.03C142.462 99.146 142.198 99.947 141.712 100.433C141.226 100.919 140.419 101.162 139.291 101.162Z" fill="#4AE8A1"/>
<rect opacity="0.5" x="161.5" y="38.5" width="32" height="32" stroke="#262626"/>
<rect x="161.5" y="0.5" width="32" height="32" stroke="#4AE8A1"/>
<path opacity="0.5" d="M7.81 62V47.6H10.78C11.914 47.6 12.733 47.837 13.237 48.311C13.747 48.779 14.023 49.556 14.065 50.642C14.077 51.062 14.086 51.443 14.092 51.785C14.098 52.121 14.098 52.454 14.092 52.784C14.086 53.114 14.077 53.468 14.065 53.846C14.041 54.542 13.921 55.112 13.705 55.556C13.489 55.994 13.153 56.321 12.697 56.537L14.29 62H12.058L10.708 56.888H9.916V62H7.81ZM9.916 55.025H10.771C11.161 55.025 11.449 54.935 11.635 54.755C11.827 54.569 11.932 54.302 11.95 53.954C11.968 53.588 11.98 53.213 11.986 52.829C11.992 52.439 11.992 52.052 11.986 51.668C11.98 51.278 11.968 50.9 11.95 50.534C11.932 50.18 11.83 49.913 11.644 49.733C11.458 49.553 11.17 49.463 10.78 49.463H9.916V55.025ZM16.8416 62V47.6H18.9476V62H16.8416ZM24.9242 62.162C23.7962 62.162 22.9892 61.919 22.5032 61.433C22.0232 60.947 21.7592 60.146 21.7112 59.03C21.7052 58.766 21.7022 58.505 21.7022 58.247C21.7022 57.983 21.7052 57.722 21.7112 57.464C21.7232 57.2 21.7412 56.936 21.7652 56.672H23.7542C23.7302 57.152 23.7152 57.626 23.7092 58.094C23.7092 58.556 23.7242 58.994 23.7542 59.408C23.7842 59.744 23.8892 59.999 24.0692 60.173C24.2552 60.341 24.5372 60.425 24.9152 60.425C25.2872 60.425 25.5572 60.341 25.7252 60.173C25.8932 59.999 25.9952 59.744 26.0312 59.408C26.0492 59.15 26.0612 58.91 26.0672 58.688C26.0792 58.46 26.0792 58.229 26.0672 57.995C26.0612 57.761 26.0492 57.509 26.0312 57.239C26.0072 56.909 25.9322 56.624 25.8062 56.384C25.6862 56.138 25.4702 55.976 25.1582 55.898L23.8982 55.574C23.3342 55.43 22.8932 55.223 22.5752 54.953C22.2572 54.677 22.0292 54.329 21.8912 53.909C21.7532 53.483 21.6752 52.979 21.6572 52.397C21.6512 52.085 21.6482 51.776 21.6482 51.47C21.6542 51.164 21.6602 50.858 21.6662 50.552C21.6962 49.808 21.8192 49.208 22.0352 48.752C22.2512 48.296 22.5932 47.963 23.0612 47.753C23.5292 47.543 24.1472 47.438 24.9152 47.438C26.0072 47.438 26.7962 47.681 27.2822 48.167C27.7742 48.647 28.0412 49.442 28.0832 50.552C28.0952 50.84 28.0982 51.194 28.0922 51.614C28.0862 52.028 28.0742 52.436 28.0562 52.838H26.0312C26.0492 52.394 26.0582 51.95 26.0582 51.506C26.0642 51.062 26.0582 50.621 26.0402 50.183C26.0342 49.847 25.9322 49.595 25.7342 49.427C25.5422 49.259 25.2692 49.175 24.9152 49.175C24.5372 49.175 24.2612 49.259 24.0872 49.427C23.9132 49.595 23.8082 49.847 23.7722 50.183C23.7422 50.549 23.7272 50.918 23.7272 51.29C23.7272 51.662 23.7422 52.031 23.7722 52.397C23.7962 52.751 23.8712 53.042 23.9972 53.27C24.1292 53.498 24.3602 53.651 24.6902 53.729L25.8062 53.999C26.4002 54.137 26.8622 54.35 27.1922 54.638C27.5282 54.926 27.7652 55.286 27.9032 55.718C28.0472 56.144 28.1312 56.651 28.1552 57.239C28.1612 57.467 28.1642 57.677 28.1642 57.869C28.1642 58.061 28.1612 58.25 28.1552 58.436C28.1492 58.622 28.1432 58.82 28.1372 59.03C28.0952 60.146 27.8312 60.947 27.3452 61.433C26.8592 61.919 26.0522 62.162 24.9242 62.162ZM30.862 62V47.6H33.103L33.076 51.056L32.716 54.458H33.13L34.102 50.93L35.281 47.6H37.585L35.299 53.729L37.738 62H35.596L33.904 56.105L33.013 58.166V62H30.862ZM43.0754 62.162C41.9474 62.162 41.1404 61.919 40.6544 61.433C40.1744 60.947 39.9104 60.146 39.8624 59.03C39.8564 58.766 39.8534 58.505 39.8534 58.247C39.8534 57.983 39.8564 57.722 39.8624 57.464C39.8744 57.2 39.8924 56.936 39.9164 56.672H41.9054C41.8814 57.152 41.8664 57.626 41.8604 58.094C41.8604 58.556 41.8754 58.994 41.9054 59.408C41.9354 59.744 42.0404 59.999 42.2204 60.173C42.4064 60.341 42.6884 60.425 43.0664 60.425C43.4384 60.425 43.7084 60.341 43.8764 60.173C44.0444 59.999 44.1464 59.744 44.1824 59.408C44.2004 59.15 44.2124 58.91 44.2184 58.688C44.2304 58.46 44.2304 58.229 44.2184 57.995C44.2124 57.761 44.2004 57.509 44.1824 57.239C44.1584 56.909 44.0834 56.624 43.9574 56.384C43.8374 56.138 43.6214 55.976 43.3094 55.898L42.0494 55.574C41.4854 55.43 41.0444 55.223 40.7264 54.953C40.4084 54.677 40.1804 54.329 40.0424 53.909C39.9044 53.483 39.8264 52.979 39.8084 52.397C39.8024 52.085 39.7994 51.776 39.7994 51.47C39.8054 51.164 39.8114 50.858 39.8174 50.552C39.8474 49.808 39.9704 49.208 40.1864 48.752C40.4024 48.296 40.7444 47.963 41.2124 47.753C41.6804 47.543 42.2984 47.438 43.0664 47.438C44.1584 47.438 44.9474 47.681 45.4334 48.167C45.9254 48.647 46.1924 49.442 46.2344 50.552C46.2464 50.84 46.2494 51.194 46.2434 51.614C46.2374 52.028 46.2254 52.436 46.2074 52.838H44.1824C44.2004 52.394 44.2094 51.95 44.2094 51.506C44.2154 51.062 44.2094 50.621 44.1914 50.183C44.1854 49.847 44.0834 49.595 43.8854 49.427C43.6934 49.259 43.4204 49.175 43.0664 49.175C42.6884 49.175 42.4124 49.259 42.2384 49.427C42.0644 49.595 41.9594 49.847 41.9234 50.183C41.8934 50.549 41.8784 50.918 41.8784 51.29C41.8784 51.662 41.8934 52.031 41.9234 52.397C41.9474 52.751 42.0224 53.042 42.1484 53.27C42.2804 53.498 42.5114 53.651 42.8414 53.729L43.9574 53.999C44.5514 54.137 45.0134 54.35 45.3434 54.638C45.6794 54.926 45.9164 55.286 46.0544 55.718C46.1984 56.144 46.2824 56.651 46.3064 57.239C46.3124 57.467 46.3154 57.677 46.3154 57.869C46.3154 58.061 46.3124 58.25 46.3064 58.436C46.3004 58.622 46.2944 58.82 46.2884 59.03C46.2464 60.146 45.9824 60.947 45.4964 61.433C45.0104 61.919 44.2034 62.162 43.0754 62.162Z" fill="#E84A4A"/>
<path d="M9.223 24V11.463H7.099V9.6H13.462V11.463H11.338V24H9.223ZM15.7166 24V9.6H18.6866C19.8206 9.6 20.6396 9.837 21.1436 10.311C21.6536 10.779 21.9296 11.556 21.9716 12.642C21.9836 13.062 21.9926 13.443 21.9986 13.785C22.0046 14.121 22.0046 14.454 21.9986 14.784C21.9926 15.114 21.9836 15.468 21.9716 15.846C21.9476 16.542 21.8276 17.112 21.6116 17.556C21.3956 17.994 21.0596 18.321 20.6036 18.537L22.1966 24H19.9646L18.6146 18.888H17.8226V24H15.7166ZM17.8226 17.025H18.6776C19.0676 17.025 19.3556 16.935 19.5416 16.755C19.7336 16.569 19.8386 16.302 19.8566 15.954C19.8746 15.588 19.8866 15.213 19.8926 14.829C19.8986 14.439 19.8986 14.052 19.8926 13.668C19.8866 13.278 19.8746 12.9 19.8566 12.534C19.8386 12.18 19.7366 11.913 19.5506 11.733C19.3646 11.553 19.0766 11.463 18.6866 11.463H17.8226V17.025ZM27.8533 24.162C26.7073 24.162 25.8853 23.922 25.3873 23.442C24.8953 22.956 24.6403 22.158 24.6223 21.048C24.5983 19.146 24.5863 17.238 24.5863 15.324C24.5863 13.404 24.5983 11.496 24.6223 9.6H26.7283C26.7103 10.86 26.6983 12.162 26.6923 13.506C26.6863 14.844 26.6863 16.182 26.6923 17.52C26.7043 18.858 26.7163 20.157 26.7283 21.417C26.7283 21.753 26.8243 22.005 27.0163 22.173C27.2083 22.341 27.4873 22.425 27.8533 22.425C28.2253 22.425 28.5013 22.341 28.6813 22.173C28.8673 22.005 28.9603 21.753 28.9603 21.417C28.9723 20.157 28.9813 18.858 28.9873 17.52C28.9933 16.182 28.9933 14.844 28.9873 13.506C28.9873 12.162 28.9783 10.86 28.9603 9.6H31.0663C31.0963 11.496 31.1113 13.404 31.1113 15.324C31.1113 17.238 31.0963 19.146 31.0663 21.048C31.0543 22.158 30.7993 22.956 30.3013 23.442C29.8093 23.922 28.9933 24.162 27.8533 24.162ZM36.909 24.162C35.781 24.162 34.974 23.919 34.488 23.433C34.008 22.947 33.744 22.146 33.696 21.03C33.69 20.766 33.687 20.505 33.687 20.247C33.687 19.983 33.69 19.722 33.696 19.464C33.708 19.2 33.726 18.936 33.75 18.672H35.739C35.715 19.152 35.7 19.626 35.694 20.094C35.694 20.556 35.709 20.994 35.739 21.408C35.769 21.744 35.874 21.999 36.054 22.173C36.24 22.341 36.522 22.425 36.9 22.425C37.272 22.425 37.542 22.341 37.71 22.173C37.878 21.999 37.98 21.744 38.016 21.408C38.034 21.15 38.046 20.91 38.052 20.688C38.064 20.46 38.064 20.229 38.052 19.995C38.046 19.761 38.034 19.509 38.016 19.239C37.992 18.909 37.917 18.624 37.791 18.384C37.671 18.138 37.455 17.976 37.143 17.898L35.883 17.574C35.319 17.43 34.878 17.223 34.56 16.953C34.242 16.677 34.014 16.329 33.876 15.909C33.738 15.483 33.66 14.979 33.642 14.397C33.636 14.085 33.633 13.776 33.633 13.47C33.639 13.164 33.645 12.858 33.651 12.552C33.681 11.808 33.804 11.208 34.02 10.752C34.236 10.296 34.578 9.963 35.046 9.753C35.514 9.543 36.132 9.438 36.9 9.438C37.992 9.438 38.781 9.681 39.267 10.167C39.759 10.647 40.026 11.442 40.068 12.552C40.08 12.84 40.083 13.194 40.077 13.614C40.071 14.028 40.059 14.436 40.041 14.838H38.016C38.034 14.394 38.043 13.95 38.043 13.506C38.049 13.062 38.043 12.621 38.025 12.183C38.019 11.847 37.917 11.595 37.719 11.427C37.527 11.259 37.254 11.175 36.9 11.175C36.522 11.175 36.246 11.259 36.072 11.427C35.898 11.595 35.793 11.847 35.757 12.183C35.727 12.549 35.712 12.918 35.712 13.29C35.712 13.662 35.727 14.031 35.757 14.397C35.781 14.751 35.856 15.042 35.982 15.27C36.114 15.498 36.345 15.651 36.675 15.729L37.791 15.999C38.385 16.137 38.847 16.35 39.177 16.638C39.513 16.926 39.75 17.286 39.888 17.718C40.032 18.144 40.116 18.651 40.14 19.239C40.146 19.467 40.149 19.677 40.149 19.869C40.149 20.061 40.146 20.25 40.14 20.436C40.134 20.622 40.128 20.82 40.122 21.03C40.08 22.146 39.816 22.947 39.33 23.433C38.844 23.919 38.037 24.162 36.909 24.162ZM44.2597 24V11.463H42.1357V9.6H48.4987V11.463H46.3747V24H44.2597ZM50.7534 24V9.6H56.1354V11.463H52.8594V15.774H55.9554V17.637H52.8594V22.137H56.1354V24H50.7534ZM58.6952 24V9.6H61.8182C62.9642 9.6 63.7922 9.849 64.3022 10.347C64.8122 10.839 65.0792 11.649 65.1032 12.777C65.1212 13.737 65.1332 14.646 65.1392 15.504C65.1452 16.362 65.1452 17.223 65.1392 18.087C65.1332 18.945 65.1212 19.851 65.1032 20.805C65.0792 21.945 64.8122 22.764 64.3022 23.262C63.7922 23.754 62.9612 24 61.8092 24H58.6952ZM60.8012 22.137H61.8092C62.2052 22.137 62.4992 22.047 62.6912 21.867C62.8832 21.681 62.9822 21.408 62.9882 21.048C63.0062 20.334 63.0182 19.623 63.0242 18.915C63.0362 18.207 63.0422 17.499 63.0422 16.791C63.0422 16.083 63.0362 15.375 63.0242 14.667C63.0182 13.959 63.0062 13.248 62.9882 12.534C62.9822 12.18 62.8832 11.913 62.6912 11.733C62.4992 11.553 62.2082 11.463 61.8182 11.463H60.8012V22.137ZM73.2252 24V9.6H76.3482C77.4942 9.6 78.3222 9.849 78.8322 10.347C79.3422 10.839 79.6092 11.649 79.6332 12.777C79.6512 13.737 79.6632 14.646 79.6692 15.504C79.6752 16.362 79.6752 17.223 79.6692 18.087C79.6632 18.945 79.6512 19.851 79.6332 20.805C79.6092 21.945 79.3422 22.764 78.8322 23.262C78.3222 23.754 77.4912 24 76.3392 24H73.2252ZM75.3312 22.137H76.3392C76.7352 22.137 77.0292 22.047 77.2212 21.867C77.4132 21.681 77.5122 21.408 77.5182 21.048C77.5362 20.334 77.5482 19.623 77.5542 18.915C77.5662 18.207 77.5722 17.499 77.5722 16.791C77.5722 16.083 77.5662 15.375 77.5542 14.667C77.5482 13.959 77.5362 13.248 77.5182 12.534C77.5122 12.18 77.4132 11.913 77.2212 11.733C77.0292 11.553 76.7382 11.463 76.3482 11.463H75.3312V22.137ZM82.5381 24V9.6H87.9201V11.463H84.6441V15.774H87.7401V17.637H84.6441V22.137H87.9201V24H82.5381ZM91.8209 24L89.9579 9.6H92.1449L93.0899 17.133L93.3329 22.137H93.8369L94.0709 17.133L95.0249 9.6H97.2119L95.3489 24H91.8209ZM99.6522 24V9.6H101.758V24H99.6522ZM107.879 24.162C106.733 24.162 105.914 23.922 105.422 23.442C104.936 22.956 104.681 22.155 104.657 21.039C104.645 20.403 104.636 19.725 104.63 19.005C104.624 18.285 104.621 17.55 104.621 16.8C104.621 16.05 104.624 15.315 104.63 14.595C104.636 13.869 104.645 13.185 104.657 12.543C104.675 11.571 104.936 10.812 105.44 10.266C105.944 9.72 106.754 9.447 107.87 9.447C108.98 9.447 109.784 9.687 110.282 10.167C110.78 10.647 111.044 11.445 111.074 12.561C111.08 12.771 111.083 13.014 111.083 13.29C111.083 13.566 111.08 13.842 111.074 14.118C111.074 14.394 111.071 14.637 111.065 14.847H108.95C108.956 14.589 108.962 14.304 108.968 13.992C108.974 13.674 108.977 13.356 108.977 13.038C108.977 12.72 108.974 12.435 108.968 12.183C108.962 11.841 108.866 11.589 108.68 11.427C108.5 11.259 108.23 11.175 107.87 11.175C107.51 11.175 107.237 11.259 107.051 11.427C106.871 11.589 106.775 11.841 106.763 12.183C106.745 12.915 106.73 13.671 106.718 14.451C106.712 15.225 106.709 16.008 106.709 16.8C106.709 17.592 106.712 18.378 106.718 19.158C106.73 19.932 106.745 20.682 106.763 21.408C106.775 21.756 106.874 22.014 107.06 22.182C107.246 22.35 107.519 22.434 107.879 22.434C108.263 22.434 108.551 22.35 108.743 22.182C108.935 22.014 109.034 21.756 109.04 21.408C109.046 21.15 109.049 20.859 109.049 20.535C109.055 20.211 109.055 19.887 109.049 19.563C109.043 19.233 109.037 18.939 109.031 18.681H111.146C111.158 19.059 111.164 19.452 111.164 19.86C111.164 20.268 111.158 20.661 111.146 21.039C111.116 22.155 110.846 22.956 110.336 23.442C109.832 23.922 109.013 24.162 107.879 24.162ZM113.901 24V9.6H119.283V11.463H116.007V15.774H119.103V17.637H116.007V22.137H119.283V24H113.901Z" fill="#4AE8A1"/>
<g opacity="0.5" clip-path="url(#clip1_60_46)">
<path d="M177 53.586L181.95 48.636L183.364 50.05L178.414 55L183.364 59.95L181.95 61.364L177 56.414L172.05 61.364L170.636 59.95L175.586 55L170.636 50.05L172.05 48.636L177 53.586Z" fill="#E84A4A"/>
</g>
<g clip-path="url(#clip2_60_46)">
<path d="M176 20.172L185.192 10.979L186.607 12.393L176 23L169.636 16.636L171.05 15.222L176 20.172Z" fill="#4AE8A1"/>
</g>
<defs>
<clipPath id="clip0_60_46">
<rect width="24" height="24" fill="white" transform="translate(166 81)"/>
</clipPath>
<clipPath id="clip1_60_46">
<rect width="24" height="24" fill="white" transform="translate(165 43)"/>
</clipPath>
<clipPath id="clip2_60_46">
<rect width="24" height="24" fill="white" transform="translate(166 5)"/>
</clipPath>
</defs>
</svg>
